<?xml version="1.0" encoding="UTF-8"?>
<svg xmlns="http://www.w3.org/2000/svg" xmlns:xlink="http://www.w3.org/1999/xlink" width="100px" height="100px" viewBox="0 0 100 100" version="1.1">
<defs>
<filter id="alpha" filterUnits="objectBoundingBox" x="0%" y="0%" width="100%" height="100%">
  <feColorMatrix type="matrix" in="SourceGraphic" values="0 0 0 0 1 0 0 0 0 1 0 0 0 0 1 0 0 0 1 0"/>
</filter>
<mask id="mask0">
  <g filter="url(#alpha)">
<rect x="0" y="0" width="100" height="100" style="fill:rgb(0%,0%,0%);fill-opacity:0.988235;stroke:none;"/>
  </g>
</mask>
<clipPath id="clip1">
  <rect x="0" y="0" width="100" height="100"/>
</clipPath>
<g id="surface5" clip-path="url(#clip1)">
<path style=" stroke:none;fill-rule:evenodd;fill:rgb(54.901961%,73.72549%,100%);fill-opacity:1;" d="M 48.925781 -0.0976562 C 49.25 -0.0976562 49.578125 -0.0976562 49.902344 -0.0976562 C 49.902344 7.976562 49.902344 16.046875 49.902344 24.121094 C 36.816406 24.121094 23.730469 24.121094 10.644531 24.121094 C 23.355469 15.964844 36.117188 7.890625 48.925781 -0.0976562 Z M 48.925781 -0.0976562 "/>
</g>
<mask id="mask1">
  <g filter="url(#alpha)">
<rect x="0" y="0" width="100" height="100" style="fill:rgb(0%,0%,0%);fill-opacity:0.996078;stroke:none;"/>
  </g>
</mask>
<clipPath id="clip2">
  <rect x="0" y="0" width="100" height="100"/>
</clipPath>
<g id="surface8" clip-path="url(#clip2)">
<path style=" stroke:none;fill-rule:evenodd;fill:rgb(14.901961%,50.980392%,100%);fill-opacity:1;" d="M 10.644531 24.121094 C 23.730469 24.121094 36.816406 24.121094 49.902344 24.121094 C 62.988281 24.121094 76.074219 24.121094 89.160156 24.121094 C 89.226562 24.121094 89.289062 24.121094 89.355469 24.121094 C 76.238281 24.316406 63.085938 24.382812 49.902344 24.316406 C 49.902344 29.851562 49.902344 35.382812 49.902344 40.917969 C 47.167969 40.917969 44.433594 40.917969 41.699219 40.917969 C 37.664062 40.917969 33.625 40.917969 29.589844 40.917969 C 26.855469 40.917969 24.121094 40.917969 21.386719 40.917969 C 18.652344 40.917969 15.917969 40.917969 13.183594 40.917969 C 10.109375 41.007812 7.050781 40.910156 4.003906 40.625 C 1.824219 39.679688 0.617188 38.019531 0.390625 35.644531 C 0.261719 33.5625 0.261719 31.476562 0.390625 29.394531 C 0.734375 26.707031 2.199219 24.980469 4.785156 24.21875 C 6.738281 24.121094 8.691406 24.089844 10.644531 24.121094 Z M 10.644531 24.121094 "/>
</g>
<mask id="mask2">
  <g filter="url(#alpha)">
<rect x="0" y="0" width="100" height="100" style="fill:rgb(0%,0%,0%);fill-opacity:0.976471;stroke:none;"/>
  </g>
</mask>
<clipPath id="clip3">
  <rect x="0" y="0" width="100" height="100"/>
</clipPath>
<g id="surface11" clip-path="url(#clip3)">
<path style=" stroke:none;fill-rule:evenodd;fill:rgb(54.901961%,73.72549%,100%);fill-opacity:1;" d="M 13.183594 40.917969 C 15.917969 40.917969 18.652344 40.917969 21.386719 40.917969 C 21.386719 51.398438 21.386719 61.882812 21.386719 72.363281 C 18.652344 72.363281 15.917969 72.363281 13.183594 72.363281 C 13.183594 61.882812 13.183594 51.398438 13.183594 40.917969 Z M 13.183594 40.917969 "/>
</g>
<mask id="mask3">
  <g filter="url(#alpha)">
<rect x="0" y="0" width="100" height="100" style="fill:rgb(0%,0%,0%);fill-opacity:0.988235;stroke:none;"/>
  </g>
</mask>
<clipPath id="clip4">
  <rect x="0" y="0" width="100" height="100"/>
</clipPath>
<g id="surface14" clip-path="url(#clip4)">
<path style=" stroke:none;fill-rule:evenodd;fill:rgb(54.901961%,73.72549%,100%);fill-opacity:1;" d="M 41.699219 40.917969 C 44.433594 40.917969 47.167969 40.917969 49.902344 40.917969 C 49.902344 51.398438 49.902344 61.882812 49.902344 72.363281 C 47.167969 72.363281 44.433594 72.363281 41.699219 72.363281 C 41.699219 61.882812 41.699219 51.398438 41.699219 40.917969 Z M 41.699219 40.917969 "/>
</g>
<mask id="mask4">
  <g filter="url(#alpha)">
<rect x="0" y="0" width="100" height="100" style="fill:rgb(0%,0%,0%);fill-opacity:0.976471;stroke:none;"/>
  </g>
</mask>
<clipPath id="clip5">
  <rect x="0" y="0" width="100" height="100"/>
</clipPath>
<g id="surface17" clip-path="url(#clip5)">
<path style=" stroke:none;fill-rule:evenodd;fill:rgb(54.901961%,73.72549%,100%);fill-opacity:1;" d="M 69.824219 40.917969 C 72.558594 40.917969 75.292969 40.917969 78.027344 40.917969 C 78.027344 51.398438 78.027344 61.882812 78.027344 72.363281 C 75.292969 72.363281 72.558594 72.363281 69.824219 72.363281 C 69.824219 61.882812 69.824219 51.398438 69.824219 40.917969 Z M 69.824219 40.917969 "/>
</g>
<mask id="mask5">
  <g filter="url(#alpha)">
<rect x="0" y="0" width="100" height="100" style="fill:rgb(0%,0%,0%);fill-opacity:0.996078;stroke:none;"/>
  </g>
</mask>
<clipPath id="clip6">
  <rect x="0" y="0" width="100" height="100"/>
</clipPath>
<g id="surface20" clip-path="url(#clip6)">
<path style=" stroke:none;fill-rule:evenodd;fill:rgb(14.509804%,50.196078%,99.215686%);fill-opacity:1;" d="M 13.183594 72.363281 C 15.917969 72.363281 18.652344 72.363281 21.386719 72.363281 C 24.121094 72.363281 26.855469 72.363281 29.589844 72.363281 C 33.625 72.363281 37.664062 72.363281 41.699219 72.363281 C 44.433594 72.363281 47.167969 72.363281 49.902344 72.363281 C 52.636719 72.363281 55.371094 72.363281 58.105469 72.363281 C 55.40625 72.558594 52.671875 72.621094 49.902344 72.558594 C 49.902344 76.074219 49.902344 79.589844 49.902344 83.105469 C 63.703125 83.105469 77.507812 83.105469 91.308594 83.105469 C 77.539062 83.300781 63.738281 83.367188 49.902344 83.300781 C 36.066406 83.367188 22.265625 83.300781 8.496094 83.105469 C 8.464844 80.175781 8.496094 77.246094 8.59375 74.316406 C 8.875 73.578125 9.363281 73.027344 10.058594 72.65625 C 11.082031 72.394531 12.121094 72.296875 13.183594 72.363281 Z M 13.183594 72.363281 "/>
</g>
<mask id="mask6">
  <g filter="url(#alpha)">
<rect x="0" y="0" width="100" height="100" style="fill:rgb(0%,0%,0%);fill-opacity:0.996078;stroke:none;"/>
  </g>
</mask>
<clipPath id="clip7">
  <rect x="0" y="0" width="100" height="100"/>
</clipPath>
<g id="surface23" clip-path="url(#clip7)">
<path style=" stroke:none;fill-rule:evenodd;fill:rgb(0%,31.372549%,74.901961%);fill-opacity:1;" d="M 8.496094 83.105469 C 22.265625 83.300781 36.066406 83.367188 49.902344 83.300781 C 49.902344 88.835938 49.902344 94.367188 49.902344 99.902344 C 34.015625 99.902344 18.132812 99.902344 2.246094 99.902344 C 1.195312 99.304688 0.578125 98.394531 0.390625 97.167969 C 0.203125 93.121094 0.269531 89.085938 0.585938 85.058594 C 0.960938 84.097656 1.644531 83.476562 2.636719 83.203125 C 4.589844 83.105469 6.542969 83.074219 8.496094 83.105469 Z M 8.496094 83.105469 "/>
</g>
</defs>
<g id="surface1">
<use xlink:href="#surface5" mask="url(#mask0)"/>
<path style=" stroke:none;fill-rule:evenodd;fill:rgb(41.568627%,66.27451%,100%);fill-opacity:1;" d="M 49.902344 -0.0976562 C 50.226562 -0.0976562 50.554688 -0.0976562 50.878906 -0.0976562 C 63.6875 7.890625 76.449219 15.964844 89.160156 24.121094 C 76.074219 24.121094 62.988281 24.121094 49.902344 24.121094 C 49.902344 16.046875 49.902344 7.976562 49.902344 -0.0976562 Z M 49.902344 -0.0976562 "/>
<use xlink:href="#surface8" mask="url(#mask1)"/>
<path style=" stroke:none;fill-rule:evenodd;fill:rgb(1.568627%,43.137255%,100%);fill-opacity:1;" d="M 89.355469 24.121094 C 91.246094 24.089844 93.132812 24.121094 95.019531 24.21875 C 97.605469 24.980469 99.070312 26.707031 99.414062 29.394531 C 99.585938 31.875 99.519531 34.351562 99.21875 36.816406 C 98.671875 38.925781 97.335938 40.261719 95.214844 40.820312 C 92.285156 40.917969 89.355469 40.949219 86.425781 40.917969 C 83.625 40.917969 80.828125 40.917969 78.027344 40.917969 C 75.292969 40.917969 72.558594 40.917969 69.824219 40.917969 C 65.917969 40.917969 62.011719 40.917969 58.105469 40.917969 C 55.371094 40.917969 52.636719 40.917969 49.902344 40.917969 C 49.902344 35.382812 49.902344 29.851562 49.902344 24.316406 C 63.085938 24.382812 76.238281 24.316406 89.355469 24.121094 Z M 89.355469 24.121094 "/>
<use xlink:href="#surface11" mask="url(#mask2)"/>
<path style=" stroke:none;fill-rule:evenodd;fill:rgb(41.568627%,66.27451%,100%);fill-opacity:1;" d="M 21.386719 40.917969 C 24.121094 40.917969 26.855469 40.917969 29.589844 40.917969 C 29.589844 51.398438 29.589844 61.882812 29.589844 72.363281 C 26.855469 72.363281 24.121094 72.363281 21.386719 72.363281 C 21.386719 61.882812 21.386719 51.398438 21.386719 40.917969 Z M 21.386719 40.917969 "/>
<use xlink:href="#surface14" mask="url(#mask3)"/>
<path style=" stroke:none;fill-rule:evenodd;fill:rgb(41.568627%,66.27451%,100%);fill-opacity:1;" d="M 49.902344 40.917969 C 52.636719 40.917969 55.371094 40.917969 58.105469 40.917969 C 58.105469 51.398438 58.105469 61.882812 58.105469 72.363281 C 55.371094 72.363281 52.636719 72.363281 49.902344 72.363281 C 49.902344 61.882812 49.902344 51.398438 49.902344 40.917969 Z M 49.902344 40.917969 "/>
<use xlink:href="#surface17" mask="url(#mask4)"/>
<path style=" stroke:none;fill-rule:evenodd;fill:rgb(41.568627%,66.27451%,100%);fill-opacity:1;" d="M 78.027344 40.917969 C 80.828125 40.917969 83.625 40.917969 86.425781 40.917969 C 86.425781 51.398438 86.425781 61.882812 86.425781 72.363281 C 83.625 72.363281 80.828125 72.363281 78.027344 72.363281 C 78.027344 61.882812 78.027344 51.398438 78.027344 40.917969 Z M 78.027344 40.917969 "/>
<use xlink:href="#surface20" mask="url(#mask5)"/>
<path style=" stroke:none;fill-rule:evenodd;fill:rgb(1.568627%,43.137255%,100%);fill-opacity:1;" d="M 58.105469 72.363281 C 62.011719 72.363281 65.917969 72.363281 69.824219 72.363281 C 72.558594 72.363281 75.292969 72.363281 78.027344 72.363281 C 80.828125 72.363281 83.625 72.363281 86.425781 72.363281 C 87.550781 72.292969 88.65625 72.390625 89.746094 72.65625 C 90.441406 73.027344 90.929688 73.578125 91.210938 74.316406 C 91.308594 77.246094 91.339844 80.175781 91.308594 83.105469 C 77.507812 83.105469 63.703125 83.105469 49.902344 83.105469 C 49.902344 79.589844 49.902344 76.074219 49.902344 72.558594 C 52.671875 72.621094 55.40625 72.558594 58.105469 72.363281 Z M 58.105469 72.363281 "/>
<use xlink:href="#surface23" mask="url(#mask6)"/>
<path style=" stroke:none;fill-rule:evenodd;fill:rgb(0%,20.392157%,48.235294%);fill-opacity:1;" d="M 91.308594 83.105469 C 93.261719 83.074219 95.214844 83.105469 97.167969 83.203125 C 98.160156 83.476562 98.84375 84.097656 99.21875 85.058594 C 99.535156 89.085938 99.601562 93.121094 99.414062 97.167969 C 99.226562 98.394531 98.609375 99.304688 97.558594 99.902344 C 81.671875 99.902344 65.789062 99.902344 49.902344 99.902344 C 49.902344 94.367188 49.902344 88.835938 49.902344 83.300781 C 63.738281 83.367188 77.539062 83.300781 91.308594 83.105469 Z M 91.308594 83.105469 "/>
</g>
</svg>
