<?xml version="1.0" encoding="UTF-8"?>
<svg xmlns="http://www.w3.org/2000/svg" xmlns:xlink="http://www.w3.org/1999/xlink" width="100px" height="100px" viewBox="0 0 100 100" version="1.1">
<g id="surface1">
<path style=" stroke:none;fill-rule:evenodd;fill:rgb(99.215686%,99.215686%,99.215686%);fill-opacity:1;" d="M -0.222656 -0.222656 C 31.628906 -0.222656 63.480469 -0.222656 95.332031 -0.222656 C 91.460938 1.132812 87.460938 2.246094 83.332031 3.109375 C 82.699219 3.316406 82.179688 3.6875 81.777344 4.222656 C 80.75 8 80.082031 11.851562 79.777344 15.777344 C 54.144531 18.816406 28.515625 21.851562 2.890625 24.890625 C 1.519531 25.125 0.480469 25.792969 -0.222656 26.890625 C -0.222656 17.851562 -0.222656 8.816406 -0.222656 -0.222656 Z M -0.222656 -0.222656 "/>
<path style=" stroke:none;fill-rule:evenodd;fill:rgb(91.764706%,91.764706%,91.764706%);fill-opacity:1;" d="M 97.554688 -0.222656 C 98.296875 -0.222656 99.035156 -0.222656 99.777344 -0.222656 C 99.777344 0.519531 99.777344 1.257812 99.777344 2 C 99.183594 1.109375 98.445312 0.371094 97.554688 -0.222656 Z M 97.554688 -0.222656 "/>
<path style=" stroke:none;fill-rule:evenodd;fill:rgb(0.784314%,0.784314%,0.784314%);fill-opacity:1;" d="M 95.332031 -0.222656 C 96.074219 -0.222656 96.816406 -0.222656 97.554688 -0.222656 C 98.445312 0.371094 99.183594 1.109375 99.777344 2 C 99.777344 2.59375 99.777344 3.183594 99.777344 3.777344 C 99.269531 4.65625 98.527344 5.320312 97.554688 5.777344 C 94.027344 6.734375 90.472656 7.550781 86.890625 8.222656 C 83.804688 27.46875 80.765625 46.726562 77.777344 66 C 77.519531 66.667969 77.148438 67.261719 76.667969 67.777344 C 56.535156 68.070312 36.386719 68.367188 16.222656 68.667969 C 16.851562 70.703125 17.296875 72.777344 17.554688 74.890625 C 39.039062 74.816406 60.519531 74.890625 82 75.109375 C 84.789062 76.683594 84.9375 78.460938 82.445312 80.445312 C 59.464844 80.8125 36.5 80.738281 13.554688 80.222656 C 13.074219 79.703125 12.703125 79.113281 12.445312 78.445312 C 8.347656 61.765625 4.125 45.171875 -0.222656 28.667969 C -0.222656 28.074219 -0.222656 27.480469 -0.222656 26.890625 C 0.480469 25.792969 1.519531 25.125 2.890625 24.890625 C 28.515625 21.851562 54.144531 18.816406 79.777344 15.777344 C 80.082031 11.851562 80.75 8 81.777344 4.222656 C 82.179688 3.6875 82.699219 3.316406 83.332031 3.109375 C 87.460938 2.246094 91.460938 1.132812 95.332031 -0.222656 Z M 95.332031 -0.222656 "/>
<path style=" stroke:none;fill-rule:evenodd;fill:rgb(98.431373%,98.431373%,98.431373%);fill-opacity:1;" d="M 99.777344 3.777344 C 99.777344 35.777344 99.777344 67.777344 99.777344 99.777344 C 89.703125 99.777344 79.628906 99.777344 69.554688 99.777344 C 74.53125 97.796875 75.792969 94.390625 73.332031 89.554688 C 69.136719 86.246094 65.582031 86.839844 62.667969 91.332031 C 61.925781 95.488281 63.484375 98.304688 67.332031 99.777344 C 54.59375 99.777344 41.851562 99.777344 29.109375 99.777344 C 33.378906 98.023438 34.785156 94.914062 33.332031 90.445312 C 30.171875 86.753906 26.765625 86.457031 23.109375 89.554688 C 20.777344 94.179688 21.886719 97.585938 26.445312 99.777344 C 17.554688 99.777344 8.667969 99.777344 -0.222656 99.777344 C -0.222656 76.074219 -0.222656 52.371094 -0.222656 28.667969 C 4.125 45.171875 8.347656 61.765625 12.445312 78.445312 C 12.703125 79.113281 13.074219 79.703125 13.554688 80.222656 C 36.5 80.738281 59.464844 80.8125 82.445312 80.445312 C 84.9375 78.460938 84.789062 76.683594 82 75.109375 C 60.519531 74.890625 39.039062 74.816406 17.554688 74.890625 C 17.296875 72.777344 16.851562 70.703125 16.222656 68.667969 C 36.386719 68.367188 56.535156 68.070312 76.667969 67.777344 C 77.148438 67.261719 77.519531 66.667969 77.777344 66 C 80.765625 46.726562 83.804688 27.46875 86.890625 8.222656 C 90.472656 7.550781 94.027344 6.734375 97.554688 5.777344 C 98.527344 5.320312 99.269531 4.65625 99.777344 3.777344 Z M 99.777344 3.777344 "/>
<path style=" stroke:none;fill-rule:evenodd;fill:rgb(48.627451%,48.627451%,48.627451%);fill-opacity:1;" d="M 74.890625 22.445312 C 75.671875 22.015625 76.5625 21.867188 77.554688 22 C 77.683594 22.851562 77.535156 23.589844 77.109375 24.222656 C 77.109375 23.628906 77.109375 23.035156 77.109375 22.445312 C 76.371094 22.445312 75.628906 22.445312 74.890625 22.445312 Z M 74.890625 22.445312 "/>
<path style=" stroke:none;fill-rule:evenodd;fill:rgb(97.647059%,97.647059%,97.647059%);fill-opacity:1;" d="M 74.890625 22.445312 C 75.628906 22.445312 76.371094 22.445312 77.109375 22.445312 C 77.109375 23.035156 77.109375 23.628906 77.109375 24.222656 C 75.519531 36.820312 73.886719 49.414062 72.222656 62 C 69.945312 62.269531 67.875 61.972656 66 61.109375 C 67.480469 48.371094 68.964844 35.628906 70.445312 22.890625 C 71.914062 22.644531 73.394531 22.496094 74.890625 22.445312 Z M 74.890625 22.445312 "/>
<path style=" stroke:none;fill-rule:evenodd;fill:rgb(97.647059%,97.647059%,97.647059%);fill-opacity:1;" d="M 59.777344 60.667969 C 59.375 60.980469 59.226562 61.425781 59.332031 62 C 57.257812 62 55.183594 62 53.109375 62 C 53.523438 49.554688 53.96875 37.109375 54.445312 24.667969 C 57.6875 24.222656 60.949219 23.929688 64.222656 23.777344 C 62.988281 36.113281 61.507812 48.40625 59.777344 60.667969 Z M 59.777344 60.667969 "/>
<path style=" stroke:none;fill-rule:evenodd;fill:rgb(96.862745%,96.862745%,96.862745%);fill-opacity:1;" d="M 45.554688 25.554688 C 46.445312 25.554688 47.332031 25.554688 48.222656 25.554688 C 47.960938 37.859375 47.519531 50.15625 46.890625 62.445312 C 44.667969 62.445312 42.445312 62.445312 40.222656 62.445312 C 39.472656 50.597656 38.953125 38.746094 38.667969 26.890625 C 41.003906 26.421875 43.300781 25.980469 45.554688 25.554688 Z M 45.554688 25.554688 "/>
<path style=" stroke:none;fill-rule:evenodd;fill:rgb(98.039216%,98.039216%,98.039216%);fill-opacity:1;" d="M 31.332031 27.332031 C 31.777344 27.332031 32.222656 27.332031 32.667969 27.332031 C 33.144531 39.035156 33.589844 50.738281 34 62.445312 C 31.777344 62.445312 29.554688 62.445312 27.332031 62.445312 C 25.894531 51.777344 24.414062 41.109375 22.890625 30.445312 C 22.910156 29.734375 23.058594 29.066406 23.332031 28.445312 C 26.085938 28.214844 28.75 27.84375 31.332031 27.332031 Z M 31.332031 27.332031 "/>
<path style=" stroke:none;fill-rule:evenodd;fill:rgb(97.647059%,97.647059%,97.647059%);fill-opacity:1;" d="M 12.667969 29.554688 C 14 29.554688 15.332031 29.554688 16.667969 29.554688 C 18.273438 40.503906 19.753906 51.464844 21.109375 62.445312 C 18.890625 62.445312 16.667969 62.445312 14.445312 62.445312 C 12.066406 51.746094 9.546875 41.078125 6.890625 30.445312 C 8.894531 30.273438 10.820312 29.976562 12.667969 29.554688 Z M 12.667969 29.554688 "/>
<path style=" stroke:none;fill-rule:evenodd;fill:rgb(70.980392%,70.980392%,70.980392%);fill-opacity:1;" d="M 59.777344 60.667969 C 59.777344 61.257812 59.777344 61.851562 59.777344 62.445312 C 57.46875 62.585938 55.246094 62.4375 53.109375 62 C 55.183594 62 57.257812 62 59.332031 62 C 59.226562 61.425781 59.375 60.980469 59.777344 60.667969 Z M 59.777344 60.667969 "/>
<path style=" stroke:none;fill-rule:evenodd;fill:rgb(64.313725%,64.313725%,64.313725%);fill-opacity:1;" d="M 66 61.109375 C 67.875 61.972656 69.945312 62.269531 72.222656 62 C 70.085938 62.4375 67.863281 62.585938 65.554688 62.445312 C 65.449219 61.871094 65.597656 61.425781 66 61.109375 Z M 66 61.109375 "/>
<path style=" stroke:none;fill-rule:evenodd;fill:rgb(1.176471%,1.176471%,1.176471%);fill-opacity:1;" d="M 29.109375 99.777344 C 28.222656 99.777344 27.332031 99.777344 26.445312 99.777344 C 21.886719 97.585938 20.777344 94.179688 23.109375 89.554688 C 26.765625 86.457031 30.171875 86.753906 33.332031 90.445312 C 34.785156 94.914062 33.378906 98.023438 29.109375 99.777344 Z M 29.109375 99.777344 "/>
<path style=" stroke:none;fill-rule:evenodd;fill:rgb(1.176471%,1.176471%,1.176471%);fill-opacity:1;" d="M 69.554688 99.777344 C 68.816406 99.777344 68.074219 99.777344 67.332031 99.777344 C 63.484375 98.304688 61.925781 95.488281 62.667969 91.332031 C 65.582031 86.839844 69.136719 86.246094 73.332031 89.554688 C 75.792969 94.390625 74.53125 97.796875 69.554688 99.777344 Z M 69.554688 99.777344 "/>
</g>
</svg>
