<?xml version="1.0" encoding="UTF-8"?>
<svg xmlns="http://www.w3.org/2000/svg" xmlns:xlink="http://www.w3.org/1999/xlink" width="100px" height="100px" viewBox="0 0 100 100" version="1.1">
<defs>
<filter id="alpha" filterUnits="objectBoundingBox" x="0%" y="0%" width="100%" height="100%">
  <feColorMatrix type="matrix" in="SourceGraphic" values="0 0 0 0 1 0 0 0 0 1 0 0 0 0 1 0 0 0 1 0"/>
</filter>
<mask id="mask0">
  <g filter="url(#alpha)">
<rect x="0" y="0" width="100" height="100" style="fill:rgb(0%,0%,0%);fill-opacity:0.996078;stroke:none;"/>
  </g>
</mask>
<clipPath id="clip1">
  <rect x="0" y="0" width="100" height="100"/>
</clipPath>
<g id="surface5" clip-path="url(#clip1)">
<path style=" stroke:none;fill-rule:evenodd;fill:rgb(20.392157%,32.941176%,63.137255%);fill-opacity:1;" d="M 48.925781 13.574219 C 50.015625 20.414062 51.121094 27.25 52.246094 34.082031 C 37.792969 34.082031 23.339844 34.082031 8.886719 34.082031 C 8.167969 31.328125 7.875 28.527344 8.007812 25.683594 C 8.96875 22.117188 11.28125 20.066406 14.941406 19.53125 C 26.269531 17.523438 37.597656 15.539062 48.925781 13.574219 Z M 48.925781 13.574219 "/>
</g>
<mask id="mask1">
  <g filter="url(#alpha)">
<rect x="0" y="0" width="100" height="100" style="fill:rgb(0%,0%,0%);fill-opacity:0.996078;stroke:none;"/>
  </g>
</mask>
<clipPath id="clip2">
  <rect x="0" y="0" width="100" height="100"/>
</clipPath>
<g id="surface8" clip-path="url(#clip2)">
<path style=" stroke:none;fill-rule:evenodd;fill:rgb(32.156863%,84.705882%,89.019608%);fill-opacity:1;" d="M 8.886719 34.082031 C 19.855469 34.277344 30.859375 34.34375 41.894531 34.277344 C 41.894531 38.640625 41.894531 43 41.894531 47.363281 C 27.898438 47.363281 13.898438 47.363281 -0.0976562 47.363281 C -0.0976562 44.953125 -0.0976562 42.546875 -0.0976562 40.136719 C 1.355469 35.890625 4.347656 33.875 8.886719 34.082031 Z M 8.886719 34.082031 "/>
</g>
<mask id="mask2">
  <g filter="url(#alpha)">
<rect x="0" y="0" width="100" height="100" style="fill:rgb(0%,0%,0%);fill-opacity:0.996078;stroke:none;"/>
  </g>
</mask>
<clipPath id="clip3">
  <rect x="0" y="0" width="100" height="100"/>
</clipPath>
<g id="surface11" clip-path="url(#clip3)">
<path style=" stroke:none;fill-rule:evenodd;fill:rgb(32.54902%,84.705882%,89.019608%);fill-opacity:1;" d="M -0.0976562 60.839844 C 13.898438 60.839844 27.898438 60.839844 41.894531 60.839844 C 41.894531 71.386719 41.894531 81.933594 41.894531 92.480469 C 29.84375 92.570312 17.800781 92.476562 5.761719 92.1875 C 2.710938 91.253906 0.757812 89.265625 -0.0976562 86.230469 C -0.0976562 77.765625 -0.0976562 69.304688 -0.0976562 60.839844 Z M -0.0976562 60.839844 "/>
</g>
</defs>
<g id="surface1">
<path style=" stroke:none;fill-rule:evenodd;fill:rgb(10.588235%,20.784314%,33.333333%);fill-opacity:1;" d="M 99.902344 56.347656 C 99.902344 57.585938 99.902344 58.820312 99.902344 60.058594 C 99.160156 62.675781 97.53125 64.53125 95.019531 65.625 C 91.332031 66.433594 87.621094 67.117188 83.886719 67.675781 C 83.886719 65.398438 83.886719 63.117188 83.886719 60.839844 C 83.886719 56.347656 83.886719 51.855469 83.886719 47.363281 C 83.96875 44.746094 83.871094 42.144531 83.59375 39.550781 C 82.496094 36.5625 80.378906 34.773438 77.246094 34.179688 C 68.914062 34.082031 60.578125 34.050781 52.246094 34.082031 C 51.121094 27.25 50.015625 20.414062 48.925781 13.574219 C 60.792969 11.4375 72.675781 9.355469 84.570312 7.324219 C 88.5 7.609375 91.039062 9.628906 92.1875 13.378906 C 94.726562 27.734375 97.296875 42.058594 99.902344 56.347656 Z M 99.902344 56.347656 "/>
<use xlink:href="#surface5" mask="url(#mask0)"/>
<use xlink:href="#surface8" mask="url(#mask1)"/>
<path style=" stroke:none;fill-rule:evenodd;fill:rgb(9.803922%,65.490196%,78.431373%);fill-opacity:1;" d="M 8.886719 34.082031 C 23.339844 34.082031 37.792969 34.082031 52.246094 34.082031 C 60.578125 34.050781 68.914062 34.082031 77.246094 34.179688 C 80.378906 34.773438 82.496094 36.5625 83.59375 39.550781 C 83.871094 42.144531 83.96875 44.746094 83.886719 47.363281 C 69.890625 47.363281 55.890625 47.363281 41.894531 47.363281 C 41.894531 43 41.894531 38.640625 41.894531 34.277344 C 30.859375 34.34375 19.855469 34.277344 8.886719 34.082031 Z M 8.886719 34.082031 "/>
<path style=" stroke:none;fill-rule:evenodd;fill:rgb(92.156863%,96.470588%,98.823529%);fill-opacity:1;" d="M -0.0976562 47.558594 C 13.898438 47.558594 27.898438 47.558594 41.894531 47.558594 C 41.894531 51.921875 41.894531 56.28125 41.894531 60.644531 C 27.898438 60.644531 13.898438 60.644531 -0.0976562 60.644531 C -0.0976562 56.28125 -0.0976562 51.921875 -0.0976562 47.558594 Z M -0.0976562 47.558594 "/>
<path style=" stroke:none;fill-rule:evenodd;fill:rgb(82.745098%,90.588235%,99.215686%);fill-opacity:1;" d="M -0.0976562 47.558594 C -0.0976562 47.492188 -0.0976562 47.429688 -0.0976562 47.363281 C 13.898438 47.363281 27.898438 47.363281 41.894531 47.363281 C 55.890625 47.363281 69.890625 47.363281 83.886719 47.363281 C 83.886719 51.855469 83.886719 56.347656 83.886719 60.839844 C 69.890625 60.839844 55.890625 60.839844 41.894531 60.839844 C 27.898438 60.839844 13.898438 60.839844 -0.0976562 60.839844 C -0.0976562 60.773438 -0.0976562 60.710938 -0.0976562 60.644531 C 13.898438 60.644531 27.898438 60.644531 41.894531 60.644531 C 41.894531 56.28125 41.894531 51.921875 41.894531 47.558594 C 27.898438 47.558594 13.898438 47.558594 -0.0976562 47.558594 Z M -0.0976562 47.558594 "/>
<use xlink:href="#surface11" mask="url(#mask2)"/>
<path style=" stroke:none;fill-rule:evenodd;fill:rgb(9.411765%,65.882353%,78.823529%);fill-opacity:1;" d="M 41.894531 60.839844 C 55.890625 60.839844 69.890625 60.839844 83.886719 60.839844 C 83.886719 63.117188 83.886719 65.398438 83.886719 67.675781 C 83.917969 73.859375 83.886719 80.046875 83.789062 86.230469 C 82.777344 89.976562 80.335938 92.027344 76.464844 92.382812 C 64.941406 92.480469 53.417969 92.511719 41.894531 92.480469 C 41.894531 81.933594 41.894531 71.386719 41.894531 60.839844 Z M 41.894531 60.839844 "/>
<path style=" stroke:none;fill-rule:evenodd;fill:rgb(91.372549%,96.078431%,99.607843%);fill-opacity:1;" d="M 9.082031 79.394531 C 14.03125 79.363281 18.976562 79.394531 23.925781 79.492188 C 26.132812 80.554688 26.621094 82.148438 25.390625 84.277344 C 24.910156 84.699219 24.355469 84.992188 23.730469 85.15625 C 18.847656 85.285156 13.964844 85.285156 9.082031 85.15625 C 7.101562 84.222656 6.546875 82.757812 7.421875 80.761719 C 7.898438 80.183594 8.453125 79.730469 9.082031 79.394531 Z M 9.082031 79.394531 "/>
</g>
</svg>
