<?xml version="1.0" encoding="UTF-8"?>
<svg xmlns="http://www.w3.org/2000/svg" xmlns:xlink="http://www.w3.org/1999/xlink" width="100px" height="100px" viewBox="0 0 100 100" version="1.1">
<defs>
<filter id="alpha" filterUnits="objectBoundingBox" x="0%" y="0%" width="100%" height="100%">
  <feColorMatrix type="matrix" in="SourceGraphic" values="0 0 0 0 1 0 0 0 0 1 0 0 0 0 1 0 0 0 1 0"/>
</filter>
<mask id="mask0">
  <g filter="url(#alpha)">
<rect x="0" y="0" width="100" height="100" style="fill:rgb(0%,0%,0%);fill-opacity:0.996078;stroke:none;"/>
  </g>
</mask>
<clipPath id="clip1">
  <rect x="0" y="0" width="100" height="100"/>
</clipPath>
<g id="surface5" clip-path="url(#clip1)">
<path style=" stroke:none;fill-rule:evenodd;fill:rgb(28.235294%,64.705882%,80%);fill-opacity:1;" d="M 3.808594 18.652344 C 26.007812 18.652344 48.210938 18.652344 70.410156 18.652344 C 70.378906 21.972656 70.410156 25.292969 70.507812 28.613281 C 71.089844 29.433594 71.839844 29.59375 72.753906 29.101562 C 72.992188 28.78125 73.15625 28.421875 73.242188 28.027344 C 73.339844 24.902344 73.371094 21.777344 73.339844 18.652344 C 79.589844 18.621094 85.839844 18.652344 92.089844 18.75 C 94.53125 19.367188 96.0625 20.898438 96.679688 23.339844 C 96.894531 26.71875 96.992188 30.105469 96.972656 33.496094 C 97 36.632812 96.902344 39.757812 96.679688 42.871094 C 96.582031 43.230469 96.355469 43.457031 95.996094 43.554688 C 90.539062 44.15625 88.421875 47.117188 89.648438 52.441406 C 91 54.925781 93.117188 56.195312 95.996094 56.25 C 96.355469 56.347656 96.582031 56.574219 96.679688 56.933594 C 97 62.914062 97.0625 68.902344 96.875 74.902344 C 96.660156 78.046875 95.066406 80.097656 92.089844 81.054688 C 85.839844 81.152344 79.589844 81.183594 73.339844 81.152344 C 73.371094 78.027344 73.339844 74.902344 73.242188 71.777344 C 72.878906 70.441406 72.0625 70.082031 70.800781 70.703125 C 70.679688 70.851562 70.582031 71.011719 70.507812 71.191406 C 70.410156 74.511719 70.378906 77.832031 70.410156 81.152344 C 48.0625 81.25 25.734375 81.152344 3.417969 80.859375 C 2.941406 80.066406 2.910156 79.253906 3.320312 78.417969 C 5.15625 76.421875 6.882812 74.335938 8.496094 72.167969 C 6.882812 70 5.15625 67.914062 3.320312 65.917969 C 2.929688 65.136719 2.929688 64.355469 3.320312 63.574219 C 5.15625 61.578125 6.882812 59.492188 8.496094 57.324219 C 6.882812 55.15625 5.15625 53.070312 3.320312 51.074219 C 2.929688 50.292969 2.929688 49.511719 3.320312 48.730469 C 5.15625 46.734375 6.882812 44.648438 8.496094 42.480469 C 6.742188 40.238281 4.953125 38.023438 3.125 35.839844 C 2.964844 35.164062 3.03125 34.511719 3.320312 33.886719 C 5.15625 31.890625 6.882812 29.804688 8.496094 27.636719 C 6.882812 25.46875 5.15625 23.382812 3.320312 21.386719 C 2.816406 20.320312 2.980469 19.40625 3.808594 18.652344 Z M 30.175781 34.472656 C 34.882812 34.105469 37.554688 36.253906 38.183594 40.917969 C 37.734375 44.882812 35.519531 47.097656 31.542969 47.558594 C 26.84375 46.929688 24.730469 44.261719 25.195312 39.550781 C 25.84375 36.851562 27.503906 35.160156 30.175781 34.472656 Z M 71.191406 36.035156 C 72.328125 35.835938 73.011719 36.292969 73.242188 37.402344 C 73.371094 40.007812 73.371094 42.609375 73.242188 45.214844 C 72.878906 46.550781 72.0625 46.910156 70.800781 46.289062 C 70.679688 46.140625 70.582031 45.980469 70.507812 45.800781 C 70.378906 42.804688 70.378906 39.8125 70.507812 36.816406 C 70.640625 36.453125 70.871094 36.195312 71.191406 36.035156 Z M 52.050781 36.621094 C 53.398438 36.910156 53.886719 37.691406 53.515625 38.964844 C 45.605469 46.875 37.695312 54.785156 29.785156 62.695312 C 28.519531 63.335938 27.675781 62.945312 27.246094 61.523438 C 27.382812 61.316406 27.480469 61.085938 27.539062 60.839844 C 35.632812 52.648438 43.804688 44.574219 52.050781 36.621094 Z M 48.730469 52.246094 C 53.738281 52.46875 56.117188 55.074219 55.859375 60.058594 C 54.738281 64.054688 52.101562 65.78125 47.949219 65.234375 C 44.796875 64.300781 43.101562 62.1875 42.871094 58.886719 C 43.261719 55.242188 45.214844 53.03125 48.730469 52.246094 Z M 71.191406 53.222656 C 72.328125 53.023438 73.011719 53.480469 73.242188 54.589844 C 73.371094 57.195312 73.371094 59.796875 73.242188 62.402344 C 72.878906 63.738281 72.0625 64.097656 70.800781 63.476562 C 70.679688 63.328125 70.582031 63.167969 70.507812 62.988281 C 70.378906 59.992188 70.378906 57 70.507812 54.003906 C 70.640625 53.644531 70.871094 53.382812 71.191406 53.222656 Z M 71.191406 53.222656 "/>
</g>
<mask id="mask1">
  <g filter="url(#alpha)">
<rect x="0" y="0" width="100" height="100" style="fill:rgb(0%,0%,0%);fill-opacity:0.980392;stroke:none;"/>
  </g>
</mask>
<clipPath id="clip2">
  <rect x="0" y="0" width="100" height="100"/>
</clipPath>
<g id="surface8" clip-path="url(#clip2)">
<path style=" stroke:none;fill-rule:evenodd;fill:rgb(29.411765%,53.72549%,69.803922%);fill-opacity:1;" d="M 30.371094 37.402344 C 34.070312 37.160156 35.597656 38.851562 34.960938 42.480469 C 33.867188 44.320312 32.269531 44.941406 30.175781 44.335938 C 28.042969 43.1875 27.425781 41.464844 28.320312 39.160156 C 28.800781 38.320312 29.484375 37.734375 30.371094 37.402344 Z M 30.371094 37.402344 "/>
</g>
<mask id="mask2">
  <g filter="url(#alpha)">
<rect x="0" y="0" width="100" height="100" style="fill:rgb(0%,0%,0%);fill-opacity:0.976471;stroke:none;"/>
  </g>
</mask>
<clipPath id="clip3">
  <rect x="0" y="0" width="100" height="100"/>
</clipPath>
<g id="surface11" clip-path="url(#clip3)">
<path style=" stroke:none;fill-rule:evenodd;fill:rgb(29.411765%,53.72549%,69.411765%);fill-opacity:1;" d="M 48.730469 55.175781 C 52.734375 55.496094 53.9375 57.515625 52.34375 61.230469 C 51.160156 62.335938 49.761719 62.695312 48.144531 62.304688 C 45.96875 61.070312 45.351562 59.28125 46.289062 56.933594 C 46.921875 56.070312 47.734375 55.484375 48.730469 55.175781 Z M 48.730469 55.175781 "/>
</g>
</defs>
<g id="surface1">
<use xlink:href="#surface5" mask="url(#mask0)"/>
<use xlink:href="#surface8" mask="url(#mask1)"/>
<use xlink:href="#surface11" mask="url(#mask2)"/>
</g>
</svg>
