<?xml version="1.0" encoding="UTF-8"?>
<svg xmlns="http://www.w3.org/2000/svg" xmlns:xlink="http://www.w3.org/1999/xlink" width="100px" height="100px" viewBox="0 0 100 100" version="1.1">
<g id="surface1">
<path style=" stroke:none;fill-rule:evenodd;fill:rgb(9.803922%,46.27451%,82.352941%);fill-opacity:1;" d="M 10.253906 -0.0976562 C 36.6875 -0.0976562 63.117188 -0.0976562 89.550781 -0.0976562 C 95.148438 1.203125 98.601562 4.65625 99.902344 10.253906 C 99.902344 36.6875 99.902344 63.117188 99.902344 89.550781 C 98.601562 95.148438 95.148438 98.601562 89.550781 99.902344 C 82.585938 99.902344 75.617188 99.902344 68.652344 99.902344 C 68.652344 88.445312 68.652344 76.984375 68.652344 65.527344 C 71.78125 65.59375 74.90625 65.527344 78.027344 65.332031 C 80.09375 60.210938 82.175781 55.101562 84.277344 50 C 79.070312 49.902344 73.859375 49.871094 68.652344 49.902344 C 68.621094 45.34375 68.652344 40.789062 68.75 36.230469 C 69.140625 35.1875 69.890625 34.570312 70.996094 34.375 C 74.382812 34.277344 77.765625 34.246094 81.152344 34.277344 C 81.152344 29.070312 81.152344 23.859375 81.152344 18.652344 C 76.203125 18.621094 71.257812 18.652344 66.308594 18.75 C 58.664062 20.015625 53.488281 24.277344 50.78125 31.542969 C 50.519531 32.714844 50.261719 33.886719 50 35.058594 C 49.902344 40.007812 49.871094 44.953125 49.902344 49.902344 C 45.734375 49.902344 41.570312 49.902344 37.402344 49.902344 C 37.402344 55.109375 37.402344 60.320312 37.402344 65.527344 C 41.570312 65.527344 45.734375 65.527344 49.902344 65.527344 C 49.902344 76.984375 49.902344 88.445312 49.902344 99.902344 C 36.6875 99.902344 23.46875 99.902344 10.253906 99.902344 C 4.65625 98.601562 1.203125 95.148438 -0.0976562 89.550781 C -0.0976562 63.117188 -0.0976562 36.6875 -0.0976562 10.253906 C 1.203125 4.65625 4.65625 1.203125 10.253906 -0.0976562 Z M 10.253906 -0.0976562 "/>
<path style=" stroke:none;fill-rule:evenodd;fill:rgb(97.647059%,97.647059%,97.647059%);fill-opacity:1;" d="M 68.652344 99.902344 C 62.402344 99.902344 56.152344 99.902344 49.902344 99.902344 C 49.902344 88.445312 49.902344 76.984375 49.902344 65.527344 C 45.734375 65.527344 41.570312 65.527344 37.402344 65.527344 C 37.402344 60.320312 37.402344 55.109375 37.402344 49.902344 C 41.570312 49.902344 45.734375 49.902344 49.902344 49.902344 C 49.871094 44.953125 49.902344 40.007812 50 35.058594 C 50.261719 33.886719 50.519531 32.714844 50.78125 31.542969 C 53.488281 24.277344 58.664062 20.015625 66.308594 18.75 C 71.257812 18.652344 76.203125 18.621094 81.152344 18.652344 C 81.152344 23.859375 81.152344 29.070312 81.152344 34.277344 C 77.765625 34.246094 74.382812 34.277344 70.996094 34.375 C 69.890625 34.570312 69.140625 35.1875 68.75 36.230469 C 68.652344 40.789062 68.621094 45.34375 68.652344 49.902344 C 73.859375 49.871094 79.070312 49.902344 84.277344 50 C 82.175781 55.101562 80.09375 60.210938 78.027344 65.332031 C 74.90625 65.527344 71.78125 65.59375 68.652344 65.527344 C 68.652344 76.984375 68.652344 88.445312 68.652344 99.902344 Z M 68.652344 99.902344 "/>
</g>
</svg>
