<?xml version="1.0" encoding="UTF-8"?>
<svg xmlns="http://www.w3.org/2000/svg" xmlns:xlink="http://www.w3.org/1999/xlink" width="100px" height="100px" viewBox="0 0 100 100" version="1.1">
<defs>
<filter id="alpha" filterUnits="objectBoundingBox" x="0%" y="0%" width="100%" height="100%">
  <feColorMatrix type="matrix" in="SourceGraphic" values="0 0 0 0 1 0 0 0 0 1 0 0 0 0 1 0 0 0 1 0"/>
</filter>
<mask id="mask0">
  <g filter="url(#alpha)">
<rect x="0" y="0" width="100" height="100" style="fill:rgb(0%,0%,0%);fill-opacity:0.992157;stroke:none;"/>
  </g>
</mask>
<clipPath id="clip1">
  <rect x="0" y="0" width="100" height="100"/>
</clipPath>
<g id="surface5" clip-path="url(#clip1)">
<path style=" stroke:none;fill-rule:evenodd;fill:rgb(32.941176%,34.901961%,42.745098%);fill-opacity:1;" d="M 97.363281 23.339844 C 95.25 22.882812 93.71875 23.597656 92.773438 25.488281 C 92.675781 30.5 92.644531 35.515625 92.675781 40.527344 C 89.648438 40.429688 88.019531 38.867188 87.792969 35.839844 C 88.054688 27.507812 88.054688 19.171875 87.792969 10.839844 C 87.921875 8.59375 89.027344 7.066406 91.113281 6.25 C 93.195312 6.152344 95.277344 6.121094 97.363281 6.152344 C 97.363281 11.882812 97.363281 17.609375 97.363281 23.339844 Z M 97.363281 23.339844 "/>
</g>
<mask id="mask1">
  <g filter="url(#alpha)">
<rect x="0" y="0" width="100" height="100" style="fill:rgb(0%,0%,0%);fill-opacity:0.996078;stroke:none;"/>
  </g>
</mask>
<clipPath id="clip2">
  <rect x="0" y="0" width="100" height="100"/>
</clipPath>
<g id="surface8" clip-path="url(#clip2)">
<path style=" stroke:none;fill-rule:evenodd;fill:rgb(93.72549%,56.862745%,35.294118%);fill-opacity:1;" d="M 57.910156 10.839844 C 56.929688 11.167969 56.019531 11.65625 55.175781 12.304688 C 53.054688 14.460938 50.90625 16.574219 48.730469 18.652344 C 44.5625 18.652344 40.398438 18.652344 36.230469 18.652344 C 38.273438 16.511719 40.359375 14.394531 42.480469 12.304688 C 43.28125 11.644531 44.195312 11.1875 45.214844 10.9375 C 49.445312 10.839844 53.679688 10.808594 57.910156 10.839844 Z M 57.910156 10.839844 "/>
</g>
<mask id="mask2">
  <g filter="url(#alpha)">
<rect x="0" y="0" width="100" height="100" style="fill:rgb(0%,0%,0%);fill-opacity:0.996078;stroke:none;"/>
  </g>
</mask>
<clipPath id="clip3">
  <rect x="0" y="0" width="100" height="100"/>
</clipPath>
<g id="surface11" clip-path="url(#clip3)">
<path style=" stroke:none;fill-rule:evenodd;fill:rgb(47.058824%,68.235294%,25.490196%);fill-opacity:1;" d="M 36.230469 18.652344 C 40.398438 18.652344 44.5625 18.652344 48.730469 18.652344 C 47.363281 20.085938 45.996094 21.515625 44.628906 22.949219 C 44.433594 23.078125 44.238281 23.210938 44.042969 23.339844 C 38.183594 23.308594 32.324219 23.339844 26.464844 23.4375 C 26.117188 23.589844 25.824219 23.820312 25.585938 24.121094 C 25.570312 26.664062 24.300781 28 21.777344 28.125 C 21.429688 28.277344 21.136719 28.507812 20.898438 28.808594 C 20.769531 34.992188 20.769531 41.179688 20.898438 47.363281 C 21.398438 48.195312 22.148438 48.550781 23.144531 48.4375 C 24.824219 49.222656 25.703125 50.554688 25.78125 52.441406 C 25.957031 52.675781 26.183594 52.839844 26.464844 52.929688 C 42.5625 53.125 58.640625 53.058594 74.707031 52.734375 C 75.007812 52.496094 75.238281 52.203125 75.390625 51.855469 C 75.277344 50.554688 75.765625 49.546875 76.855469 48.828125 C 77.675781 48.480469 78.519531 48.21875 79.394531 48.046875 C 79.695312 47.808594 79.925781 47.515625 80.078125 47.167969 C 80.207031 41.179688 80.207031 35.1875 80.078125 29.199219 C 79.925781 28.851562 79.695312 28.558594 79.394531 28.320312 C 78.011719 28.265625 76.875 27.710938 75.976562 26.660156 C 75.820312 26.417969 75.722656 26.15625 75.683594 25.878906 C 78.882812 24.503906 80.835938 22.097656 81.542969 18.652344 C 83.15625 18.695312 84.230469 19.476562 84.765625 20.996094 C 84.863281 25.945312 84.894531 30.890625 84.863281 35.839844 C 84.894531 42.414062 84.863281 48.992188 84.765625 55.566406 C 84.484375 56.5625 83.867188 57.246094 82.910156 57.617188 C 61.296875 57.746094 39.679688 57.746094 18.066406 57.617188 C 17.039062 57.175781 16.355469 56.425781 16.015625 55.371094 C 15.824219 43.707031 15.886719 32.050781 16.210938 20.410156 C 16.648438 19.644531 17.269531 19.09375 18.066406 18.75 C 24.121094 18.652344 30.175781 18.621094 36.230469 18.652344 Z M 36.230469 18.652344 "/>
</g>
<mask id="mask3">
  <g filter="url(#alpha)">
<rect x="0" y="0" width="100" height="100" style="fill:rgb(0%,0%,0%);fill-opacity:0.992157;stroke:none;"/>
  </g>
</mask>
<clipPath id="clip4">
  <rect x="0" y="0" width="100" height="100"/>
</clipPath>
<g id="surface14" clip-path="url(#clip4)">
<path style=" stroke:none;fill-rule:evenodd;fill:rgb(93.72549%,56.470588%,35.294118%);fill-opacity:1;" d="M 40.722656 89.941406 C 38.324219 87.867188 36.046875 85.65625 33.886719 83.300781 C 35.136719 81.753906 36.503906 80.289062 37.988281 78.90625 C 38.414062 78.597656 38.867188 78.335938 39.355469 78.125 C 43.585938 78.027344 47.820312 77.996094 52.050781 78.027344 C 54.460938 78.058594 56.871094 78.027344 59.277344 77.929688 C 63.574219 73.632812 67.871094 69.335938 72.167969 65.039062 C 74.210938 63.683594 76.292969 63.617188 78.417969 64.84375 C 80.402344 66.859375 80.695312 69.105469 79.296875 71.582031 C 74.316406 76.5625 69.335938 81.542969 64.355469 86.523438 C 64.03125 86.71875 63.703125 86.914062 63.378906 87.109375 C 56.683594 87.367188 49.980469 87.496094 43.261719 87.5 C 42.441406 88.351562 41.59375 89.167969 40.722656 89.941406 Z M 40.722656 89.941406 "/>
</g>
<mask id="mask4">
  <g filter="url(#alpha)">
<rect x="0" y="0" width="100" height="100" style="fill:rgb(0%,0%,0%);fill-opacity:0.996078;stroke:none;"/>
  </g>
</mask>
<clipPath id="clip5">
  <rect x="0" y="0" width="100" height="100"/>
</clipPath>
<g id="surface17" clip-path="url(#clip5)">
<path style=" stroke:none;fill-rule:evenodd;fill:rgb(97.647059%,72.156863%,56.470588%);fill-opacity:1;" d="M 52.050781 78.027344 C 47.820312 77.996094 43.585938 78.027344 39.355469 78.125 C 38.867188 78.335938 38.414062 78.597656 37.988281 78.90625 C 36.503906 80.289062 35.136719 81.753906 33.886719 83.300781 C 33.820312 83.300781 33.757812 83.300781 33.691406 83.300781 C 30.832031 80.34375 27.9375 77.414062 25 74.511719 C 24.910156 74.394531 24.875 74.265625 24.902344 74.121094 C 27.402344 71.71875 29.875 69.277344 32.324219 66.796875 C 33.050781 66.304688 33.832031 65.914062 34.667969 65.625 C 40.460938 65.496094 46.257812 65.496094 52.050781 65.625 C 55.898438 67.105469 57.363281 69.871094 56.445312 73.925781 C 55.5625 75.949219 54.097656 77.316406 52.050781 78.027344 Z M 52.050781 78.027344 "/>
</g>
<mask id="mask5">
  <g filter="url(#alpha)">
<rect x="0" y="0" width="100" height="100" style="fill:rgb(0%,0%,0%);fill-opacity:0.988235;stroke:none;"/>
  </g>
</mask>
<clipPath id="clip6">
  <rect x="0" y="0" width="100" height="100"/>
</clipPath>
<g id="surface20" clip-path="url(#clip6)">
<path style=" stroke:none;fill-rule:evenodd;fill:rgb(32.941176%,34.901961%,42.745098%);fill-opacity:1;" d="M 24.902344 74.121094 C 24.875 74.265625 24.910156 74.394531 25 74.511719 C 27.9375 77.414062 30.832031 80.34375 33.691406 83.300781 C 30.304688 86.75 26.921875 90.203125 23.535156 93.652344 C 16.503906 93.683594 9.472656 93.652344 2.441406 93.554688 C 9.082031 86.914062 15.722656 80.273438 22.363281 73.632812 C 23.335938 73.164062 24.179688 73.328125 24.902344 74.121094 Z M 24.902344 74.121094 "/>
</g>
</defs>
<g id="surface1">
<use xlink:href="#surface5" mask="url(#mask0)"/>
<use xlink:href="#surface8" mask="url(#mask1)"/>
<path style=" stroke:none;fill-rule:evenodd;fill:rgb(97.647059%,72.156863%,56.470588%);fill-opacity:1;" d="M 57.910156 10.839844 C 65.851562 10.839844 73.796875 10.839844 81.738281 10.839844 C 81.796875 13.453125 81.730469 16.058594 81.542969 18.652344 C 80.835938 22.097656 78.882812 24.503906 75.683594 25.878906 C 74.925781 26.140625 74.144531 26.304688 73.339844 26.367188 C 68.78125 26.433594 64.226562 26.496094 59.667969 26.5625 C 58.914062 27.285156 58.195312 28.035156 57.519531 28.808594 C 55.859375 30.433594 54.167969 32.03125 52.441406 33.59375 C 48.03125 35.96875 43.992188 35.480469 40.332031 32.128906 C 38.707031 30.347656 38.773438 28.65625 40.527344 27.050781 C 42.886719 28.914062 45.199219 28.851562 47.460938 26.855469 C 47.589844 26.464844 47.589844 26.074219 47.460938 25.683594 C 46.667969 24.597656 45.722656 23.683594 44.628906 22.949219 C 45.996094 21.515625 47.363281 20.085938 48.730469 18.652344 C 50.90625 16.574219 53.054688 14.460938 55.175781 12.304688 C 56.019531 11.65625 56.929688 11.167969 57.910156 10.839844 Z M 57.910156 10.839844 "/>
<path style=" stroke:none;fill-rule:evenodd;fill:rgb(92.54902%,56.470588%,35.294118%);fill-opacity:1;" d="M 81.738281 10.839844 C 83.757812 10.839844 85.773438 10.839844 87.792969 10.839844 C 88.054688 19.171875 88.054688 27.507812 87.792969 35.839844 C 86.816406 35.839844 85.839844 35.839844 84.863281 35.839844 C 84.894531 30.890625 84.863281 25.945312 84.765625 20.996094 C 84.230469 19.476562 83.15625 18.695312 81.542969 18.652344 C 81.730469 16.058594 81.796875 13.453125 81.738281 10.839844 Z M 81.738281 10.839844 "/>
<use xlink:href="#surface11" mask="url(#mask2)"/>
<path style=" stroke:none;fill-rule:evenodd;fill:rgb(94.117647%,57.254902%,35.686275%);fill-opacity:1;" d="M 44.628906 22.949219 C 45.722656 23.683594 46.667969 24.597656 47.460938 25.683594 C 47.589844 26.074219 47.589844 26.464844 47.460938 26.855469 C 45.199219 28.851562 42.886719 28.914062 40.527344 27.050781 C 41.699219 25.8125 42.871094 24.578125 44.042969 23.339844 C 44.238281 23.210938 44.433594 23.078125 44.628906 22.949219 Z M 44.628906 22.949219 "/>
<path style=" stroke:none;fill-rule:evenodd;fill:rgb(27.45098%,41.176471%,19.607843%);fill-opacity:1;" d="M 44.042969 23.339844 C 42.871094 24.578125 41.699219 25.8125 40.527344 27.050781 C 38.773438 28.65625 38.707031 30.347656 40.332031 32.128906 C 37.714844 37.421875 38.367188 42.273438 42.285156 46.679688 C 47.339844 50.765625 52.546875 50.960938 57.910156 47.265625 C 62.761719 42.480469 63.445312 37.171875 59.960938 31.347656 C 59.238281 30.398438 58.425781 29.550781 57.519531 28.808594 C 58.195312 28.035156 58.914062 27.285156 59.667969 26.5625 C 64.226562 26.496094 68.78125 26.433594 73.339844 26.367188 C 74.144531 26.304688 74.925781 26.140625 75.683594 25.878906 C 75.722656 26.15625 75.820312 26.417969 75.976562 26.660156 C 76.875 27.710938 78.011719 28.265625 79.394531 28.320312 C 79.695312 28.558594 79.925781 28.851562 80.078125 29.199219 C 80.207031 35.1875 80.207031 41.179688 80.078125 47.167969 C 79.925781 47.515625 79.695312 47.808594 79.394531 48.046875 C 78.519531 48.21875 77.675781 48.480469 76.855469 48.828125 C 75.765625 49.546875 75.277344 50.554688 75.390625 51.855469 C 75.238281 52.203125 75.007812 52.496094 74.707031 52.734375 C 58.640625 53.058594 42.5625 53.125 26.464844 52.929688 C 26.183594 52.839844 25.957031 52.675781 25.78125 52.441406 C 25.703125 50.554688 24.824219 49.222656 23.144531 48.4375 C 22.148438 48.550781 21.398438 48.195312 20.898438 47.363281 C 20.769531 41.179688 20.769531 34.992188 20.898438 28.808594 C 21.136719 28.507812 21.429688 28.277344 21.777344 28.125 C 24.300781 28 25.570312 26.664062 25.585938 24.121094 C 25.824219 23.820312 26.117188 23.589844 26.464844 23.4375 C 32.324219 23.339844 38.183594 23.308594 44.042969 23.339844 Z M 44.042969 23.339844 "/>
<path style=" stroke:none;fill-rule:evenodd;fill:rgb(27.45098%,23.529412%,29.411765%);fill-opacity:1;" d="M 97.363281 23.339844 C 97.363281 29.070312 97.363281 34.796875 97.363281 40.527344 C 95.800781 40.527344 94.238281 40.527344 92.675781 40.527344 C 92.644531 35.515625 92.675781 30.5 92.773438 25.488281 C 93.71875 23.597656 95.25 22.882812 97.363281 23.339844 Z M 97.363281 23.339844 "/>
<path style=" stroke:none;fill-rule:evenodd;fill:rgb(46.666667%,68.235294%,25.490196%);fill-opacity:1;" d="M 57.519531 28.808594 C 58.425781 29.550781 59.238281 30.398438 59.960938 31.347656 C 63.445312 37.171875 62.761719 42.480469 57.910156 47.265625 C 52.546875 50.960938 47.339844 50.765625 42.285156 46.679688 C 38.367188 42.273438 37.714844 37.421875 40.332031 32.128906 C 43.992188 35.480469 48.03125 35.96875 52.441406 33.59375 C 54.167969 32.03125 55.859375 30.433594 57.519531 28.808594 Z M 57.519531 28.808594 "/>
<use xlink:href="#surface14" mask="url(#mask3)"/>
<use xlink:href="#surface17" mask="url(#mask4)"/>
<path style=" stroke:none;fill-rule:evenodd;fill:rgb(94.117647%,56.862745%,35.294118%);fill-opacity:1;" d="M 48.339844 68.652344 C 49.320312 68.621094 50.296875 68.652344 51.269531 68.75 C 53.898438 70.089844 54.289062 71.914062 52.441406 74.21875 C 51.152344 74.878906 49.785156 75.074219 48.339844 74.804688 C 48.058594 74.714844 47.832031 74.550781 47.65625 74.316406 C 47.34375 72.710938 47.277344 71.082031 47.460938 69.433594 C 47.734375 69.125 48.027344 68.867188 48.339844 68.652344 Z M 48.339844 68.652344 "/>
<use xlink:href="#surface20" mask="url(#mask5)"/>
<path style=" stroke:none;fill-rule:evenodd;fill:rgb(27.45098%,23.529412%,29.411765%);fill-opacity:1;" d="M 33.691406 83.300781 C 33.757812 83.300781 33.820312 83.300781 33.886719 83.300781 C 36.046875 85.65625 38.324219 87.867188 40.722656 89.941406 C 41.851562 91.261719 41.71875 92.46875 40.332031 93.554688 C 34.734375 93.652344 29.132812 93.683594 23.535156 93.652344 C 26.921875 90.203125 30.304688 86.75 33.691406 83.300781 Z M 33.691406 83.300781 "/>
</g>
</svg>
