<?xml version="1.0" encoding="UTF-8"?>
<svg xmlns="http://www.w3.org/2000/svg" xmlns:xlink="http://www.w3.org/1999/xlink" width="100px" height="100px" viewBox="0 0 100 100" version="1.1">
<defs>
<filter id="alpha" filterUnits="objectBoundingBox" x="0%" y="0%" width="100%" height="100%">
  <feColorMatrix type="matrix" in="SourceGraphic" values="0 0 0 0 1 0 0 0 0 1 0 0 0 0 1 0 0 0 1 0"/>
</filter>
<mask id="mask0">
  <g filter="url(#alpha)">
<rect x="0" y="0" width="100" height="100" style="fill:rgb(0%,0%,0%);fill-opacity:0.988235;stroke:none;"/>
  </g>
</mask>
<clipPath id="clip1">
  <rect x="0" y="0" width="100" height="100"/>
</clipPath>
<g id="surface5" clip-path="url(#clip1)">
<path style=" stroke:none;fill-rule:evenodd;fill:rgb(1.176471%,65.882353%,95.686275%);fill-opacity:1;" d="M 99.902344 18.847656 C 99.902344 18.976562 99.902344 19.109375 99.902344 19.238281 C 97.058594 23.15625 93.707031 26.605469 89.84375 29.589844 C 90.035156 46.410156 84.5 60.992188 73.242188 73.339844 C 61.777344 84.929688 47.84375 90.65625 31.445312 90.527344 C 20.050781 90.558594 9.535156 87.5625 -0.0976562 81.542969 C -0.0976562 81.414062 -0.0976562 81.28125 -0.0976562 81.152344 C 10.9375 82.367188 20.898438 79.664062 29.785156 73.046875 C 20.410156 72.164062 14.160156 67.3125 11.035156 58.496094 C 13.921875 59.03125 16.785156 58.933594 19.628906 58.203125 C 10.488281 55.574219 5.246094 49.550781 3.90625 40.136719 C 3.746094 39.347656 3.777344 38.566406 4.003906 37.792969 C 6.75 39.308594 9.679688 40.125 12.792969 40.234375 C 6.445312 35.515625 3.550781 29.167969 4.101562 21.191406 C 4.394531 18.296875 5.273438 15.59375 6.738281 13.085938 C 6.867188 12.957031 7 12.957031 7.128906 13.085938 C 17.980469 26.097656 31.914062 33.160156 48.925781 34.277344 C 47.414062 24.3125 50.929688 16.730469 59.472656 11.523438 C 67.566406 7.851562 75.183594 8.632812 82.324219 13.867188 C 82.941406 14.484375 83.5625 15.105469 84.179688 15.722656 C 88.753906 14.71875 93.050781 13.027344 97.070312 10.644531 C 95.8125 15.355469 93.113281 19.035156 88.964844 21.679688 C 90.621094 21.640625 92.246094 21.378906 93.847656 20.898438 C 95.90625 20.3125 97.921875 19.625 99.902344 18.847656 Z M 99.902344 18.847656 "/>
</g>
</defs>
<g id="surface1">
<use xlink:href="#surface5" mask="url(#mask0)"/>
</g>
</svg>
