<?xml version="1.0" encoding="UTF-8"?>
<svg xmlns="http://www.w3.org/2000/svg" xmlns:xlink="http://www.w3.org/1999/xlink" width="100px" height="100px" viewBox="0 0 100 100" version="1.1">
<defs>
<filter id="alpha" filterUnits="objectBoundingBox" x="0%" y="0%" width="100%" height="100%">
  <feColorMatrix type="matrix" in="SourceGraphic" values="0 0 0 0 1 0 0 0 0 1 0 0 0 0 1 0 0 0 1 0"/>
</filter>
<mask id="mask0">
  <g filter="url(#alpha)">
<rect x="0" y="0" width="100" height="100" style="fill:rgb(0%,0%,0%);fill-opacity:0.992157;stroke:none;"/>
  </g>
</mask>
<clipPath id="clip1">
  <rect x="0" y="0" width="100" height="100"/>
</clipPath>
<g id="surface5" clip-path="url(#clip1)">
<path style=" stroke:none;fill-rule:evenodd;fill:rgb(96.078431%,10.980392%,4.705882%);fill-opacity:1;" d="M 99.902344 32.519531 C 99.902344 44.109375 99.902344 55.695312 99.902344 67.285156 C 98.394531 75.664062 93.640625 81.363281 85.644531 84.375 C 83.734375 84.953125 81.78125 85.28125 79.785156 85.351562 C 59.863281 85.480469 39.941406 85.480469 20.019531 85.351562 C 11.25 84.78125 5.03125 80.515625 1.367188 72.558594 C 0.722656 70.816406 0.234375 69.058594 -0.0976562 67.285156 C -0.0976562 55.695312 -0.0976562 44.109375 -0.0976562 32.519531 C 1.410156 24.140625 6.164062 18.441406 14.160156 15.429688 C 16.070312 14.851562 18.023438 14.523438 20.019531 14.453125 C 39.941406 14.324219 59.863281 14.324219 79.785156 14.453125 C 88.554688 15.023438 94.773438 19.289062 98.4375 27.246094 C 99.082031 28.988281 99.570312 30.746094 99.902344 32.519531 Z M 37.011719 35.449219 C 46.367188 39.996094 55.675781 44.652344 64.941406 49.414062 C 65.46875 49.777344 65.632812 50.265625 65.429688 50.878906 C 56.261719 55.414062 47.050781 59.875 37.792969 64.257812 C 37.078125 64.507812 36.589844 64.277344 36.328125 63.574219 C 36.199219 54.523438 36.199219 45.476562 36.328125 36.425781 C 36.378906 35.957031 36.605469 35.628906 37.011719 35.449219 Z M 37.011719 35.449219 "/>
</g>
</defs>
<g id="surface1">
<use xlink:href="#surface5" mask="url(#mask0)"/>
</g>
</svg>
